<svg width="20" height="20" viewBox="0 0 25 30" fill="none" xmlns="http://www.w3.org/2000/svg">
<path d="M12.4765 17.8519C12.0838 17.8519 11.7543 17.715 11.4881 17.4412C11.222 17.1675 11.0893 16.8291 11.0903 16.426C11.0903 16.022 11.2233 15.6831 11.4895 15.4094C11.7557 15.1356 12.0847 14.9992 12.4765 15.0001C12.8693 15.0001 13.1988 15.137 13.465 15.4108C13.7311 15.6845 13.8638 16.023 13.8628 16.426C13.8628 16.83 13.7297 17.1689 13.4636 17.4427C13.1974 17.7164 12.8684 17.8529 12.4765 17.8519ZM6.93142 17.8519C6.53864 17.8519 6.20916 17.715 5.943 17.4412C5.67683 17.1675 5.54421 16.8291 5.54513 16.426C5.54513 16.022 5.67822 15.6831 5.94438 15.4094C6.21055 15.1356 6.53956 14.9992 6.93142 15.0001C7.3242 15.0001 7.65367 15.137 7.91984 15.4108C8.186 15.6845 8.31862 16.023 8.3177 16.426C8.3177 16.83 8.18462 17.1689 7.91845 17.4427C7.65228 17.7164 7.32327 17.8529 6.93142 17.8519ZM18.0217 17.8519C17.6289 17.8519 17.2994 17.715 17.0333 17.4412C16.7671 17.1675 16.6345 16.8291 16.6354 16.426C16.6354 16.022 16.7685 15.6831 17.0346 15.4094C17.3008 15.1356 17.6298 14.9992 18.0217 15.0001C18.4145 15.0001 18.7439 15.137 19.0101 15.4108C19.2763 15.6845 19.4089 16.023 19.408 16.426C19.408 16.83 19.2749 17.1689 19.0087 17.4427C18.7425 17.7164 18.4135 17.8529 18.0217 17.8519ZM12.4765 23.5555C12.0838 23.5555 11.7543 23.4186 11.4881 23.1448C11.222 22.871 11.0893 22.5326 11.0903 22.1296C11.0903 21.7256 11.2233 21.3867 11.4895 21.1129C11.7557 20.8391 12.0847 20.7027 12.4765 20.7037C12.8693 20.7037 13.1988 20.8406 13.465 21.1143C13.7311 21.3881 13.8638 21.7265 13.8628 22.1296C13.8628 22.5336 13.7297 22.8725 13.4636 23.1462C13.1974 23.42 12.8684 23.5564 12.4765 23.5555ZM6.93142 23.5555C6.53864 23.5555 6.20916 23.4186 5.943 23.1448C5.67683 22.871 5.54421 22.5326 5.54513 22.1296C5.54513 21.7256 5.67822 21.3867 5.94438 21.1129C6.21055 20.8391 6.53956 20.7027 6.93142 20.7037C7.3242 20.7037 7.65367 20.8406 7.91984 21.1143C8.186 21.3881 8.31862 21.7265 8.3177 22.1296C8.3177 22.5336 8.18462 22.8725 7.91845 23.1462C7.65228 23.42 7.32327 23.5564 6.93142 23.5555ZM18.0217 23.5555C17.6289 23.5555 17.2994 23.4186 17.0333 23.1448C16.7671 22.871 16.6345 22.5326 16.6354 22.1296C16.6354 21.7256 16.7685 21.3867 17.0346 21.1129C17.3008 20.8391 17.6298 20.7027 18.0217 20.7037C18.4145 20.7037 18.7439 20.8406 19.0101 21.1143C19.2763 21.3881 19.4089 21.7265 19.408 22.1296C19.408 22.5336 19.2749 22.8725 19.0087 23.1462C18.7425 23.42 18.4135 23.5564 18.0217 23.5555ZM2.77257 29.259C2.01011 29.259 1.35717 28.9796 0.81375 28.4206C0.270327 27.8617 -0.000921835 27.1905 2.35362e-06 26.4072V6.44478C2.35362e-06 5.66053 0.271714 4.98894 0.815137 4.42999C1.35856 3.87104 2.01104 3.59204 2.77257 3.59299H4.15885V0.741211H6.93142V3.59299H18.0217V0.741211H20.7942V3.59299H22.1805C22.943 3.59299 23.5959 3.87247 24.1393 4.43142C24.6828 4.99037 24.954 5.66149 24.9531 6.44478V26.4072C24.9531 27.1915 24.6814 27.8631 24.138 28.422C23.5945 28.981 22.9421 29.26 22.1805 29.259H2.77257ZM2.77257 26.4072H22.1805V12.1483H2.77257V26.4072Z" fill="#121332"/>
</svg>
