<svg width="25" height="25" viewBox="0 0 43 43" fill="none" xmlns="http://www.w3.org/2000/svg">
<g clip-path="url(#clip0_301_47)">
<path d="M42.08 42.08H0V0H42.08V42.08ZM0.59 41.49H41.49V0.59H0.59V41.49Z" fill="#EED408"/>
<path d="M34.8799 5.03002C34.9399 5.07002 34.9899 5.11002 35.0799 5.17002C35.2099 4.94002 35.3499 4.72002 35.4699 4.49002C35.5599 4.32002 35.6399 4.29002 35.8199 4.39002C36.1199 4.56002 36.4399 4.69002 36.7499 4.83002C36.9799 4.94002 37.1399 5.10002 37.2499 5.34002C37.3899 5.65002 37.5199 5.97002 37.6799 6.27002C37.7699 6.44002 37.7499 6.52002 37.5799 6.60002C37.3999 6.68002 37.2399 6.78002 37.0799 6.89002C37.0099 6.94002 36.9599 7.03002 36.9199 7.10002C36.7999 7.15002 36.6599 7.18002 36.5699 7.26002C36.1699 7.64002 35.7899 8.04002 35.4099 8.44002C35.3099 8.54002 35.2499 8.65002 35.3999 8.78002C35.3599 8.76002 35.3199 8.74002 35.2699 8.72002C35.2699 8.75002 35.2699 8.78002 35.2899 8.78002C35.3899 8.80002 35.4799 8.82002 35.5799 8.84002C35.6499 8.85002 35.7799 8.85002 35.7799 8.87002C35.7899 8.96002 35.7999 9.08002 35.7499 9.13002C35.6699 9.20002 35.5399 9.22002 35.4299 9.25002C35.4099 9.18002 35.3999 9.11002 35.3799 9.04002C35.3399 8.95002 35.2899 8.86002 35.2199 8.71002C35.0999 8.91002 35.0099 9.04002 34.9399 9.19002C34.8499 9.39002 34.6999 9.52002 34.4799 9.54002C33.7999 9.60002 33.2999 9.95002 32.8399 10.43C31.4499 11.88 30.0399 13.31 28.6299 14.75C28.3499 15.04 28.0599 15.32 27.7899 15.62C27.7199 15.7 27.6699 15.82 27.6699 15.92C27.6699 17.92 27.6699 19.92 27.6599 21.92C27.6599 22.03 27.6099 22.18 27.5299 22.26C26.4199 23.39 25.2999 24.5 24.1799 25.62C24.0999 25.7 23.9499 25.76 23.8399 25.75C23.4899 25.74 23.1799 25.8 22.8599 25.94C22.4999 26.1 22.1299 26.22 21.7699 26.4C21.8899 26.41 22.0199 26.43 22.1399 26.43C22.7199 26.43 23.2899 26.43 23.8699 26.43C23.9699 26.43 24.0999 26.48 24.1699 26.55C25.2899 27.66 26.3999 28.78 27.5099 29.89C27.6299 30.01 27.6699 30.13 27.6699 30.29C27.6699 32.28 27.6699 34.28 27.6699 36.27C27.6699 36.57 27.6699 36.87 27.6699 37.21C25.1499 34.68 22.6599 32.19 20.1299 29.65C20.0399 29.94 19.9599 30.15 19.9099 30.37C19.8999 30.42 19.9499 30.5 19.9899 30.55C21.3199 31.88 22.6499 33.21 23.9799 34.54C24.9899 35.55 25.9999 36.56 27.0099 37.57C27.0499 37.61 27.0799 37.65 27.1399 37.72C27.0499 37.72 26.9899 37.74 26.9299 37.74C24.6999 37.74 22.4699 37.74 20.2399 37.74C20.0599 37.74 19.9399 37.69 19.8099 37.56C18.6999 36.44 17.5699 35.33 16.4599 34.21C16.3699 34.12 16.3699 33.94 16.3199 33.78C16.1499 33.81 15.9499 33.83 15.7599 33.87C15.7199 33.87 15.6899 33.93 15.6699 33.97C15.5999 34.09 15.5599 34.23 15.4699 34.32C14.3799 35.42 13.2799 36.52 12.1799 37.61C12.1199 37.67 12.0299 37.72 11.9499 37.72C9.64988 37.72 7.33988 37.72 5.03988 37.72C5.00988 37.72 4.96988 37.72 4.88988 37.71C5.02988 37.56 5.13988 37.44 5.25988 37.32C6.98988 35.59 8.70988 33.86 10.4399 32.13C10.6265 31.9434 10.6265 31.76 10.4399 31.58C10.2532 31.4 10.1132 31.4 10.0199 31.58C8.20988 33.39 6.38988 35.2 4.57988 37.01C4.52988 37.06 4.47988 37.11 4.37988 37.2C4.37988 37.07 4.37988 36.99 4.37988 36.91C4.37988 34.69 4.37988 32.48 4.37988 30.26C4.37988 30.09 4.42988 29.97 4.54988 29.84C5.51988 28.87 6.48988 27.9 7.45988 26.93C7.59988 26.79 7.73988 26.65 7.88988 26.5C7.91988 26.47 7.95988 26.42 7.98988 26.42C8.27988 26.46 8.22988 26.23 8.26988 26.07C8.28988 25.97 8.29988 25.86 8.31988 25.74C7.78988 25.76 7.58988 25.3 7.29988 25.01C6.36988 24.11 5.46988 23.18 4.55988 22.27C4.44988 22.16 4.38988 22.04 4.38988 21.87C4.38988 19.63 4.38988 17.39 4.38988 15.16C4.38988 15.1 4.38988 15.03 4.38988 14.91C4.68988 15.2 4.94988 15.45 5.19988 15.71C6.40988 16.92 7.61988 18.13 8.82988 19.34C9.69988 20.21 10.5699 21.07 11.4299 21.95C11.5899 22.12 11.7399 22.17 11.9499 22.08C12.0799 22.02 12.2199 21.99 12.3299 21.95C9.84988 19.46 7.36988 16.97 4.84988 14.44C4.97988 14.43 5.02988 14.42 5.07988 14.42C7.35988 14.42 9.63988 14.42 11.9199 14.42C12.0199 14.42 12.1399 14.48 12.2099 14.55C13.3299 15.66 14.4499 16.78 15.5599 17.9C15.6299 17.97 15.6699 18.1 15.6699 18.2C15.6699 18.88 15.6699 19.55 15.6699 20.23C15.6699 20.26 15.6699 20.29 15.7299 20.34C15.7799 20.22 15.8199 20.1 15.8699 19.98C15.9899 19.66 16.1199 19.34 16.2299 19.01C16.2999 18.8 16.3699 18.58 16.3699 18.37C16.3699 18.11 16.4399 17.93 16.6199 17.75C17.6999 16.69 18.7699 15.61 19.8499 14.55C19.9299 14.47 20.0699 14.42 20.1899 14.41C22.1699 14.41 24.1499 14.41 26.1299 14.41C26.2899 14.41 26.4099 14.37 26.5299 14.25C28.2999 12.51 30.0699 10.77 31.8599 9.05002C32.2599 8.66002 32.4699 8.20002 32.5499 7.68002C32.5899 7.42002 32.6899 7.22002 32.9399 7.11002C33.0699 7.05002 33.1899 6.97002 33.3199 6.89002C33.2499 6.76002 33.1999 6.67002 33.0199 6.71002C32.8499 6.75002 32.7799 6.61002 32.8999 6.42002C32.9499 6.34002 33.1099 6.32002 33.2199 6.27002C33.2399 6.34002 33.2699 6.41002 33.2899 6.48002C33.3099 6.55002 33.3399 6.63002 33.3699 6.71002C33.3299 6.69002 33.2999 6.67002 33.2199 6.63002C33.3499 6.83002 33.4699 6.79002 33.5799 6.70002C33.7699 6.55002 33.9699 6.40002 34.1499 6.24002C34.1999 6.20002 34.2299 6.08002 34.1999 6.04002C34.1599 5.98002 34.0599 5.95002 33.9799 5.92002C33.9099 5.89002 33.8299 5.89002 33.7599 5.87002C33.7899 5.76002 33.7799 5.62002 33.8499 5.56002C33.9099 5.50002 34.0499 5.52002 34.1499 5.52002C34.1699 5.52002 34.1699 5.62002 34.1899 5.67002C34.2199 5.76002 34.2499 5.85002 34.2999 5.92002C34.3199 5.95002 34.4499 5.95002 34.4799 5.92002C34.6599 5.73002 34.8199 5.53002 34.9799 5.35002C34.9399 5.23002 34.9099 5.14002 34.8799 5.04002C34.8899 5.03002 34.8999 5.02002 34.9099 5.01002L34.8799 5.03002ZM27.3099 36.47C27.3099 36.47 27.3499 36.46 27.3599 36.45C27.3599 36.38 27.3599 36.31 27.3599 36.25C27.3599 34.31 27.3599 32.38 27.3599 30.44C27.3599 30.23 27.2899 30.1 27.1499 29.96C26.0999 28.93 25.0599 27.89 24.0099 26.86C23.9399 26.8 23.8199 26.76 23.7299 26.76C22.9299 26.76 22.1299 26.76 21.3299 26.75C21.0799 26.75 20.9199 26.82 20.8499 27.04C20.6199 27.76 20.4099 28.48 20.1999 29.2C20.1799 29.28 20.2399 29.42 20.3099 29.49C20.8699 30.07 21.4399 30.63 22.0099 31.2C23.5699 32.76 25.1299 34.33 26.6999 35.89C26.8999 36.09 27.0999 36.28 27.2899 36.47H27.3099ZM5.60988 14.74C5.64988 14.81 5.65988 14.84 5.67988 14.86C6.23988 15.42 6.79988 15.99 7.36988 16.55C8.25988 17.44 9.14988 18.33 10.0399 19.21C10.8799 20.05 11.7299 20.9 12.5599 21.74C12.6599 21.84 12.7499 21.87 12.8899 21.84C13.1699 21.77 13.4499 21.72 13.7299 21.64C14.1699 21.51 14.6099 21.37 15.0399 21.22C15.2699 21.14 15.3599 20.97 15.3499 20.7C15.3299 19.9 15.3499 19.1 15.3499 18.31C15.3499 18.23 15.3099 18.13 15.2499 18.07C14.1899 16.99 13.1199 15.92 12.0499 14.85C11.9899 14.79 11.8799 14.74 11.7899 14.74C9.87988 14.74 7.95988 14.74 6.04988 14.74C5.91988 14.74 5.79988 14.74 5.62988 14.74H5.60988ZM26.3599 37.45C24.1299 35.22 21.9199 33.01 19.7099 30.8C19.5299 31.1 19.3399 31.43 19.1299 31.74C18.5499 32.57 17.8299 33.25 16.8599 33.61C16.5699 33.72 16.5399 33.92 16.7599 34.14C17.0499 34.43 17.3399 34.72 17.6299 35.01C18.3799 35.77 19.1399 36.53 19.8999 37.27C19.9899 37.36 20.1399 37.44 20.2699 37.44C22.2199 37.44 24.1699 37.44 26.1199 37.44C26.1999 37.44 26.2699 37.44 26.3599 37.44V37.45ZM17.5399 31.16C14.9999 28.61 12.4699 26.08 9.91988 23.52C9.71988 23.73 9.48988 23.92 9.32988 24.16C9.06988 24.53 9.05988 24.39 9.37988 24.72C9.41988 24.77 9.46988 24.81 9.51988 24.86C11.1999 26.54 12.8799 28.22 14.5599 29.9C15.5299 30.87 16.4999 31.84 17.4699 32.81C17.5699 32.91 17.6599 32.95 17.7799 32.84C18.5599 32.2 19.1599 31.42 19.5599 30.49C19.6099 30.37 19.5799 30.3 19.4899 30.21C18.4499 29.17 17.4199 28.13 16.3799 27.09C14.8799 25.59 13.3799 24.08 11.8699 22.58C11.8199 22.53 11.7099 22.46 11.6599 22.47C11.2699 22.6 10.8999 22.79 10.5499 23.07C13.0399 25.56 15.5199 28.03 17.9999 30.51C17.8599 30.71 17.7299 30.89 17.5499 31.14L17.5399 31.16ZM4.65988 15.78C4.65988 15.78 4.65988 15.81 4.65988 15.85C4.65988 17.86 4.65988 19.86 4.65988 21.87C4.65988 21.96 4.70988 22.07 4.76988 22.13C5.14988 22.53 5.53988 22.92 5.92988 23.31C6.60988 24 7.29988 24.69 7.97988 25.37C8.12988 25.52 8.35988 25.49 8.41988 25.3C8.81988 24.17 9.57988 23.35 10.5799 22.73C10.7999 22.59 11.0299 22.47 11.2599 22.33C9.04988 20.13 6.84988 17.95 4.64988 15.77L4.65988 15.78ZM5.57988 37.43C5.67988 37.45 5.69988 37.46 5.72988 37.46C7.74988 37.46 9.76988 37.46 11.7999 37.46C11.8799 37.46 11.9799 37.41 12.0399 37.35C13.0999 36.29 14.1499 35.23 15.2099 34.17C15.2599 34.12 15.2999 34.05 15.3699 33.96C15.2499 33.94 15.1899 33.92 15.1199 33.92C13.5499 33.86 12.1799 33.32 11.0299 32.24C10.9299 32.15 10.8599 32.15 10.7799 32.24C10.1899 32.84 9.58988 33.43 8.99988 34.02C8.10988 34.91 7.21988 35.8 6.32988 36.68C6.08988 36.92 5.85988 37.16 5.58988 37.43H5.57988ZM4.64988 36.47C6.42988 34.69 8.17988 32.94 9.94988 31.17C8.75988 29.96 8.17988 28.47 8.14988 26.71C8.05988 26.77 8.00988 26.79 7.96988 26.83C6.91988 27.88 5.86988 28.94 4.80988 29.99C4.68988 30.11 4.63988 30.23 4.63988 30.4C4.63988 32.21 4.63988 34.03 4.63988 35.84C4.63988 36.04 4.63988 36.24 4.63988 36.46L4.64988 36.47ZM27.3399 16.23C26.4899 17.1 25.6699 17.93 24.8599 18.76C23.9799 19.66 23.0999 20.57 22.2099 21.47C21.8099 21.87 21.6799 22.46 21.8999 22.98C22.1699 23.64 22.7999 23.96 23.5099 23.83C24.1199 23.71 24.4999 24.11 24.3399 24.7C24.2999 24.84 24.2399 24.97 24.1599 25.16C24.2499 25.09 24.2999 25.06 24.3399 25.02C25.3099 24.05 26.2699 23.09 27.2299 22.12C27.2999 22.05 27.3499 21.94 27.3499 21.84C27.3499 20.05 27.3499 18.26 27.3499 16.46C27.3499 16.4 27.3499 16.34 27.3299 16.22L27.3399 16.23ZM12.2799 30.4C12.3399 30.46 12.3999 30.51 12.4599 30.57C13.3699 31.45 14.2699 32.34 15.1799 33.22C15.2899 33.33 15.3799 33.46 15.4799 33.58C15.5199 33.62 15.5899 33.64 15.6399 33.63C15.9899 33.56 16.3299 33.5 16.6699 33.41C16.8699 33.36 16.8799 33.31 16.7399 33.16C16.6799 33.1 16.6199 33.04 16.5599 32.98C14.0599 30.48 11.5599 27.97 9.05988 25.47C8.96988 25.38 8.86988 25.29 8.76988 25.2C8.58988 25.55 8.41988 26.24 8.43988 26.56C8.43988 26.63 8.48988 26.71 8.53988 26.76C9.09988 27.31 9.66988 27.85 10.2199 28.4C10.5999 28.77 10.9599 29.17 11.3499 29.58C11.1699 29.75 10.9699 29.93 10.7599 30.13C10.0199 29.43 9.30988 28.75 8.55988 28.03C8.56988 28.13 8.56988 28.17 8.57988 28.2C8.75988 28.99 9.05988 29.75 9.58988 30.37C10.1299 31.01 10.7299 31.6 11.3399 32.18C12.0699 32.88 12.9499 33.29 13.9299 33.52C14.0399 33.55 14.1599 33.56 14.2699 33.57C14.2699 33.55 14.2899 33.53 14.2899 33.51C13.4199 32.68 12.5599 31.84 11.6699 30.99C11.8799 30.79 12.0699 30.61 12.2799 30.41V30.4ZM15.7999 20.83C15.5499 21.2 15.2699 21.44 14.8899 21.56C14.4899 21.68 14.0899 21.8 13.6899 21.91C13.3199 22.01 12.9399 22.09 12.5499 22.19C14.9999 24.62 17.4299 27.03 19.8699 29.45C19.8899 29.4 19.9199 29.34 19.9399 29.27C20.0399 28.86 20.1199 28.44 20.2399 28.04C20.3699 27.57 20.4799 27.07 20.7999 26.67C20.9199 26.52 21.0499 26.38 21.1999 26.22C20.9399 25.97 20.6599 25.7 20.3899 25.42C20.2599 25.29 20.1699 25.3 20.0499 25.42C19.5999 25.84 19.2899 26.35 19.1299 26.91C17.8099 25.6 16.4899 24.28 15.1699 22.96C15.2199 22.94 15.2799 22.92 15.3399 22.9C15.8799 22.72 16.3399 22.42 16.6999 21.98C16.7399 21.93 16.7699 21.81 16.7399 21.77C16.4499 21.46 16.1399 21.15 15.8199 20.83H15.7999ZM18.6899 17.48C17.8999 17.4 16.9199 18.01 16.5899 18.76C16.4399 19.12 16.2999 19.49 16.1399 19.86C16.0699 20.01 16.0899 20.11 16.2199 20.21C16.3799 20.34 16.5099 20.51 16.6599 20.65C17.8099 21.8 18.9499 22.94 20.0999 24.09C20.6799 24.67 21.2599 25.26 21.8499 25.84C21.9099 25.9 22.0299 25.95 22.0999 25.93C22.5399 25.77 22.9799 25.59 23.4199 25.4C23.7499 25.26 23.9599 25.01 24.0799 24.67C24.2299 24.27 24.0499 24 23.6299 24.06C23.1799 24.12 22.7599 24.09 22.3699 23.89C22.2699 24.02 22.1799 24.13 22.1199 24.2C21.3899 23.48 20.6799 22.78 19.9699 22.08C20.1299 21.91 20.2999 21.74 20.4399 21.59C20.0899 21.22 19.7499 20.87 19.3799 20.48C19.2199 20.68 19.0599 20.86 18.8999 21.07C18.4799 20.65 18.0999 20.26 17.7199 19.87C17.6899 19.84 17.6799 19.76 17.6899 19.72C17.8399 19.24 18.1299 18.91 18.6499 18.81C18.6999 18.81 18.7799 18.72 18.7699 18.68C18.7499 18.27 18.7199 17.87 18.6999 17.47L18.6899 17.48ZM17.3399 17.48C17.3399 17.48 17.3599 17.51 17.3699 17.52C17.4799 17.47 17.5899 17.43 17.6999 17.39C18.7599 17 19.7699 17.07 20.6999 17.77C21.0299 18.02 21.3299 18.31 21.6399 18.6C21.7599 18.71 21.8299 18.7 21.9399 18.6C23.0499 17.51 24.1599 16.43 25.2699 15.35C25.4599 15.17 25.6399 14.98 25.8299 14.79C25.7899 14.77 25.7699 14.75 25.7599 14.75C23.8999 14.75 22.0499 14.75 20.1899 14.75C20.1199 14.75 20.0399 14.8 19.9899 14.85C19.4999 15.33 19.0099 15.82 18.5199 16.31C18.1299 16.7 17.7399 17.1 17.3399 17.5V17.48ZM34.9599 8.22002C34.8999 8.31002 34.8399 8.37002 34.8399 8.42002C34.8399 8.46002 34.9299 8.54002 34.9499 8.54002C35.0099 8.52002 35.0799 8.46002 35.0899 8.41002C35.0899 8.36002 35.0199 8.31002 34.9599 8.22002ZM35.7499 7.38002C35.6999 7.47002 35.6299 7.53002 35.6399 7.57002C35.6399 7.62002 35.7299 7.69002 35.7699 7.69002C35.8199 7.69002 35.8899 7.61002 35.8899 7.56002C35.8899 7.51002 35.8199 7.46002 35.7499 7.38002ZM34.6899 6.28002C34.5999 6.23002 34.5399 6.16002 34.4999 6.17002C34.4499 6.17002 34.3799 6.26002 34.3799 6.31002C34.3799 6.36002 34.4699 6.43002 34.5099 6.43002C34.5599 6.43002 34.6099 6.35002 34.6799 6.28002H34.6899ZM33.8399 7.08002C33.7499 7.03002 33.6899 6.96002 33.6499 6.97002C33.5999 6.98002 33.5599 7.06002 33.5199 7.11002C33.5699 7.15002 33.6199 7.23002 33.6699 7.23002C33.7199 7.23002 33.7699 7.15002 33.8399 7.08002ZM36.5999 6.62002C36.5399 6.71002 36.4799 6.77002 36.4799 6.82002C36.4799 6.86002 36.5699 6.95002 36.5899 6.94002C36.6499 6.92002 36.7199 6.86002 36.7199 6.81002C36.7199 6.76002 36.6499 6.71002 36.5899 6.62002H36.5999ZM34.0999 5.61002C34.0999 5.61002 34.0599 5.57002 34.0399 5.55002C33.8899 5.59002 33.7699 5.67002 33.7799 5.85002C33.7999 5.87002 33.8199 5.88002 33.8299 5.90002C33.9199 5.80002 34.0099 5.71002 34.0899 5.61002H34.0999ZM35.4099 9.11002C35.4099 9.11002 35.4399 9.14002 35.4599 9.16002C35.6599 9.13002 35.7199 9.07002 35.7099 8.81002C35.5899 8.93002 35.4999 9.02002 35.4099 9.11002ZM32.8999 6.60002C32.8999 6.60002 32.9399 6.64002 32.9599 6.66002C33.0499 6.57002 33.1299 6.48002 33.2199 6.39002C33.1999 6.37002 33.1799 6.35002 33.1599 6.33002C32.9899 6.33002 32.9099 6.43002 32.8899 6.60002H32.8999ZM35.4199 5.44002C35.3299 5.38002 35.2799 5.32002 35.2199 5.32002C35.1799 5.32002 35.0999 5.41002 35.1099 5.44002C35.1199 5.49002 35.1799 5.57002 35.2299 5.57002C35.2699 5.57002 35.3299 5.50002 35.4099 5.44002H35.4199Z" fill="#EED408"/>
<path d="M27.97 7.48001C28.58 8.22001 29.19 8.98001 29.84 9.78001C29.53 9.78001 29.26 9.78001 29 9.78001C28.95 9.78001 28.89 9.70001 28.84 9.65001C28.34 9.03001 27.85 8.40001 27.34 7.79001C27.28 7.72001 27.15 7.67001 27.05 7.66001C26.84 7.64001 26.64 7.66001 26.4 7.66001V9.79001H25.72V4.39001C26.47 4.42001 27.21 4.41001 27.94 4.50001C28.46 4.56001 28.86 4.90001 28.99 5.43001C29.14 6.02001 29.05 6.58001 28.59 7.02001C28.41 7.19001 28.19 7.31001 27.95 7.48001H27.97ZM26.42 7.04001C26.77 7.04001 27.1 7.07001 27.43 7.04001C28.34 6.95001 28.44 6.10001 28.26 5.54001C28.21 5.39001 28.06 5.24001 27.92 5.17001C27.44 4.93001 26.93 5.04001 26.42 5.02001V7.04001Z" fill="#EED408"/>
<path d="M8.8 5.61001C8.53 5.44001 8.3 5.28001 8.04 5.16001C7.57 4.94001 7.06 4.85001 6.55 4.97001C5.88 5.13001 5.51 5.61001 5.33 6.24001C5.16 6.86001 5.17 7.49001 5.38 8.11001C5.61 8.80001 6.08 9.24001 6.82 9.28001C7.21 9.30001 7.6 9.22001 7.99 9.17001C8.05 9.17001 8.13 9.05001 8.13 8.98001C8.14 8.62001 8.13 8.26001 8.14 7.90001C8.14 7.74001 8.08 7.71001 7.94 7.71001C7.6 7.71001 7.26 7.71001 6.91 7.71001V7.12001H8.8C8.8 7.12001 8.83 7.17001 8.83 7.20001C8.83 7.89001 8.83 8.58001 8.83 9.27001C8.83 9.34001 8.78 9.45001 8.73 9.47001C7.89 9.87001 7.02 10.05 6.1 9.75001C5.38 9.52001 4.92 9.02001 4.69 8.32001C4.42 7.48001 4.41 6.63001 4.74 5.81001C5.1 4.93001 5.78 4.46001 6.71 4.35001C7.39 4.27001 8.04 4.41001 8.65 4.72001C8.76 4.78001 8.81 4.84001 8.81 4.97001C8.81 5.18001 8.81 5.39001 8.81 5.62001L8.8 5.61001Z" fill="#EED408"/>
<path d="M32.7499 20.27H33.3299C33.3299 20.38 33.3399 20.47 33.3399 20.56C33.3399 21.22 33.3399 21.88 33.3399 22.55C33.3399 22.69 33.3799 22.74 33.5199 22.73C34.0699 22.73 34.6299 22.73 35.1799 22.73C35.3399 22.73 35.3699 22.68 35.3599 22.53C35.3499 21.8 35.3599 21.08 35.3599 20.35C35.3599 20.26 35.3599 20.18 35.3599 20.08H35.9699V23.41H30.6399V20.08H31.2499C31.2499 20.25 31.2499 20.41 31.2499 20.57C31.2499 21.22 31.2499 21.88 31.2399 22.53C31.2399 22.7 31.2899 22.74 31.4499 22.73C31.8099 22.73 32.1699 22.72 32.5299 22.73C32.7199 22.73 32.7599 22.67 32.7499 22.5C32.7399 21.82 32.7499 21.15 32.7399 20.47C32.7399 20.41 32.7499 20.34 32.7599 20.27H32.7499Z" fill="#EED408"/>
<path d="M30.6399 37.66V37.03H32.6499V34.49H30.6499V33.85H35.9799V34.47H33.2799V37H35.9799V37.65H30.6499L30.6399 37.66Z" fill="#EED408"/>
<path d="M13.5398 4.42C13.5398 5.71 13.5398 6.96 13.5398 8.21C13.5398 8.41 13.4898 8.61 13.4198 8.8C13.1698 9.49 12.5498 9.9 11.7798 9.9C11.3598 9.9 10.9398 9.88 10.5598 9.67C9.95982 9.35 9.71982 8.8 9.70982 8.15C9.68982 6.92 9.70982 5.69 9.70982 4.44H10.3898C10.3898 4.52 10.3898 4.61 10.3898 4.69C10.3898 5.84 10.3898 6.99 10.3998 8.14C10.3998 8.61 10.5698 9.02 11.0398 9.19C11.5398 9.38 12.0498 9.37 12.4898 9.01C12.7798 8.77 12.8498 8.41 12.8498 8.05C12.8598 6.96 12.8498 5.88 12.8498 4.79C12.8498 4.73 12.8498 4.66 12.8498 4.6C12.8398 4.46 12.8798 4.4 13.0298 4.41C13.1898 4.41 13.3598 4.41 13.5398 4.41V4.42Z" fill="#EED408"/>
<path d="M30.6399 32.8V32.11C30.7399 32.11 30.8199 32.11 30.9099 32.11C31.9399 32.11 32.9699 32.11 33.9999 32.11C34.2099 32.11 34.4299 32.09 34.6399 32.05C35.2499 31.93 35.5699 31.42 35.4999 30.71C35.4299 29.99 35.0099 29.63 34.1799 29.62C33.0999 29.61 32.0199 29.62 30.9399 29.62C30.8499 29.62 30.7499 29.62 30.6399 29.62V28.94C30.7099 28.94 30.7799 28.93 30.8499 28.93C31.9199 28.93 32.9799 28.91 34.0399 28.93C34.3899 28.93 34.7599 29.01 35.0899 29.12C35.5699 29.28 35.8499 29.65 35.9799 30.13C36.1399 30.68 36.1299 31.23 35.9199 31.76C35.6599 32.43 35.1099 32.75 34.4299 32.77C33.3599 32.81 32.2899 32.8 31.2099 32.81C31.0199 32.81 30.8199 32.81 30.6199 32.81L30.6399 32.8Z" fill="#EED408"/>
<path d="M25.16 9.75999C24.7 9.80666 24.4 9.62333 24.26 9.20999C24.18 8.94999 24.1 8.68999 24 8.42999C23.97 8.35999 23.8799 8.27999 23.8099 8.27999C23.2099 8.26999 22.62 8.27999 22.02 8.27999C21.89 8.27999 21.85 8.33999 21.82 8.44999C21.68 8.88999 21.5399 9.33999 21.3899 9.77999H20.7C20.83 9.38999 20.96 9.00999 21.08 8.63999C21.53 7.28999 21.99 5.94999 22.43 4.59999C22.47 4.47999 22.53 4.42999 22.66 4.42999C22.83 4.42999 23.01 4.42999 23.18 4.42999C23.32 4.42999 23.38 4.47999 23.42 4.60999C23.85 5.88999 24.2799 7.16999 24.7099 8.44999C24.8299 8.80999 24.95 9.16999 25.07 9.52999C25.1 9.60999 25.1199 9.68999 25.1399 9.77999L25.16 9.75999ZM23.77 7.66999C23.49 6.81999 23.22 5.99999 22.95 5.18999C22.93 5.18999 22.9099 5.18999 22.8899 5.18999C22.6199 6.00999 22.36 6.82999 22.08 7.66999H23.77Z" fill="#EED408"/>
<path d="M34.82 24.12C35.07 24.12 35.31 24.12 35.55 24.12C35.59 24.12 35.64 24.16 35.66 24.2C36.18 25.14 36.29 26.33 35.63 27.22C35.29 27.67 34.83 27.94 34.29 28.06C33.38 28.26 32.49 28.26 31.65 27.78C30.82 27.3 30.48 26.55 30.52 25.61C30.54 25.14 30.66 24.69 30.89 24.27C30.95 24.16 31.01 24.11 31.14 24.11C31.35 24.11 31.57 24.11 31.84 24.11C31.74 24.24 31.66 24.34 31.59 24.43C31.24 24.88 31.06 25.39 31.13 25.96C31.21 26.59 31.57 27.02 32.15 27.24C32.89 27.52 33.66 27.54 34.41 27.26C35.52 26.84 35.72 25.78 35.28 24.84C35.16 24.59 34.99 24.37 34.82 24.12Z" fill="#EED408"/>
<path d="M18.6298 5.04H16.8398V4.44H21.1098V5.04H19.3398V9.77H18.6298V5.04Z" fill="#EED408"/>
<path d="M34.4298 11.62C34.9798 11.64 35.2898 11.86 35.3698 12.29C35.3998 12.46 35.3898 12.66 35.3098 12.81C35.0098 13.37 34.4898 13.74 34.1198 14.11C33.4298 13.42 32.7698 12.76 32.0798 12.08C32.4598 11.72 32.8198 11.22 33.3598 10.91C33.8198 10.65 34.3298 10.92 34.3998 11.45C34.3998 11.51 34.4098 11.56 34.4198 11.63L34.4298 11.62ZM34.6398 12.61C34.6398 12.41 34.4198 12.27 34.2398 12.37C34.1298 12.43 34.0298 12.52 33.9498 12.62C33.8998 12.67 33.8498 12.8 33.8698 12.83C33.9698 12.94 34.0898 13.06 34.2198 13.12C34.2998 13.16 34.6398 12.73 34.6398 12.62V12.61ZM33.7598 11.8C33.7598 11.62 33.5798 11.5 33.4098 11.6C33.2798 11.68 33.1698 11.78 33.0698 11.89C33.0398 11.92 33.0398 12.04 33.0698 12.07C33.1698 12.16 33.2798 12.28 33.3998 12.29C33.5298 12.3 33.7598 11.94 33.7598 11.8Z" fill="#EED408"/>
<path d="M16.4399 4.95C16.2599 4.95 16.0899 4.95 15.9299 4.95C15.8099 4.95 15.7699 5 15.7699 5.12C15.7699 6.44 15.7699 7.77 15.7699 9.09C15.7699 9.22 15.8199 9.27 15.9499 9.26C16.1099 9.26 16.2699 9.26 16.4399 9.26V9.77H14.4199V9.26C14.5799 9.26 14.7499 9.26 14.9099 9.26C15.0399 9.26 15.0999 9.23 15.0999 9.08C15.0999 7.76 15.0999 6.45 15.0999 5.13C15.0999 4.99 15.0499 4.94 14.9099 4.95C14.7499 4.95 14.5999 4.95 14.4199 4.95V4.44H16.4399V4.95Z" fill="#EED408"/>
<path d="M28.21 15.97C28.21 15.97 28.21 15.97 28.23 15.95C28.4 15.79 28.57 15.62 28.75 15.45C29.25 15.98 29.76 16.51 30.28 17.06C30.48 16.84 30.67 16.64 30.85 16.45C31.2 16.08 31.08 16.06 31.45 16.45C31.6 16.61 31.58 16.71 31.43 16.85C31.06 17.19 30.71 17.55 30.35 17.9C30.31 17.94 30.25 17.97 30.19 18.01C29.53 17.32 28.88 16.65 28.21 15.97Z" fill="#EED408"/>
<path d="M34.8799 5.02998C34.8799 5.02998 34.8599 5.04998 34.8499 5.05998C34.7899 5.05998 34.7399 5.07998 34.6799 5.06998C34.5999 5.06998 34.5199 5.03998 34.4299 5.01998C34.4499 4.91998 34.4399 4.78998 34.5099 4.72998C34.5699 4.66998 34.6999 4.66998 34.8099 4.66998C34.8299 4.66998 34.8699 4.74998 34.8699 4.79998C34.8799 4.86998 34.8699 4.94998 34.8799 5.01998V5.02998ZM34.4599 4.93998C34.4599 4.93998 34.5199 4.99998 34.5599 5.03998C34.6399 4.94998 34.7299 4.85998 34.8099 4.77998C34.7799 4.74998 34.7599 4.71998 34.7299 4.69998C34.6399 4.77998 34.5499 4.86998 34.4599 4.94998V4.93998Z" fill="#EED408"/>
<path d="M37.37 7.26003C37.37 7.37003 37.4 7.50002 37.35 7.58002C37.31 7.64002 37.18 7.65002 37.08 7.66002C37.05 7.66002 36.99 7.58003 36.99 7.55003C37 7.45003 37.02 7.32002 37.08 7.27002C37.14 7.22002 37.27 7.27002 37.37 7.27002C37.22 7.34002 37.07 7.40003 37.07 7.61003C37.3 7.57003 37.35 7.51002 37.36 7.27002L37.37 7.26003Z" fill="#EED408"/>
<path d="M36.5599 8.02001C36.5599 8.27001 36.4599 8.38001 36.2799 8.37001C36.2299 8.37001 36.1499 8.29001 36.1399 8.24001C36.1199 8.11001 36.3099 7.92001 36.4399 7.93001C36.4899 7.93001 36.5399 8.00001 36.5699 8.01001L36.5599 8.02001ZM36.1899 8.25001C36.1899 8.25001 36.2299 8.29001 36.2599 8.32001C36.4099 8.29001 36.5199 8.22001 36.5199 8.05001C36.4999 8.03001 36.4799 8.01001 36.4599 7.99001C36.3699 8.08001 36.2799 8.16001 36.1999 8.25001H36.1899Z" fill="#EED408"/>
<path d="M34.9598 8.22998C35.0298 8.31998 35.0998 8.37998 35.0898 8.41998C35.0898 8.46998 35.0098 8.52998 34.9498 8.54998C34.9198 8.54998 34.8398 8.47998 34.8398 8.42998C34.8398 8.37998 34.8998 8.31998 34.9598 8.22998Z" fill="#EED408"/>
<path d="M35.7499 7.39001C35.8199 7.47001 35.8899 7.52001 35.8899 7.57001C35.8899 7.62001 35.8199 7.70001 35.7699 7.70001C35.7299 7.70001 35.6499 7.63001 35.6399 7.58001C35.6399 7.53001 35.6999 7.48001 35.7499 7.39001Z" fill="#EED408"/>
<path d="M34.6899 6.28999C34.6099 6.35999 34.5599 6.43999 34.5199 6.43999C34.4699 6.43999 34.3899 6.36999 34.3899 6.31999C34.3899 6.26999 34.4599 6.18999 34.5099 6.17999C34.5599 6.17999 34.6199 6.23999 34.6999 6.28999H34.6899Z" fill="#EED408"/>
<path d="M33.8298 7.08998C33.7498 7.15998 33.6998 7.23998 33.6598 7.23998C33.6098 7.23998 33.5598 7.15998 33.5098 7.11998C33.5498 7.06998 33.5898 6.98998 33.6398 6.97998C33.6898 6.97998 33.7498 7.03998 33.8298 7.08998Z" fill="#EED408"/>
<path d="M36.59 6.63C36.65 6.72 36.73 6.78 36.72 6.82C36.72 6.87 36.64 6.93 36.59 6.95C36.57 6.95 36.48 6.87 36.48 6.83C36.48 6.78 36.54 6.72 36.6 6.63H36.59Z" fill="#EED408"/>
<path d="M34.0898 5.63001C33.9998 5.73001 33.9098 5.82001 33.8298 5.92001C33.8098 5.90001 33.7898 5.89001 33.7798 5.87001C33.7798 5.69001 33.8898 5.62001 34.0398 5.57001C34.0598 5.59001 34.0798 5.61001 34.0998 5.63001H34.0898Z" fill="#EED408"/>
<path d="M35.4099 9.13002C35.4999 9.04002 35.5799 8.95002 35.7099 8.83002C35.7199 9.09002 35.6699 9.15002 35.4599 9.18002C35.4399 9.16002 35.4299 9.15002 35.4099 9.13002Z" fill="#EED408"/>
<path d="M32.8899 6.62999C32.8999 6.45999 32.9899 6.36999 33.1599 6.35999C33.1799 6.37999 33.1999 6.39999 33.2199 6.41999C33.1299 6.50999 33.0499 6.59999 32.9599 6.68999C32.9399 6.66999 32.9199 6.64999 32.8999 6.62999H32.8899Z" fill="#EED408"/>
<path d="M35.4199 5.47004C35.3299 5.53004 35.2799 5.61004 35.2399 5.60004C35.1899 5.60004 35.1299 5.52004 35.1199 5.47004C35.1199 5.44004 35.1899 5.35004 35.2299 5.35004C35.2799 5.35004 35.3399 5.41004 35.4299 5.47004H35.4199Z" fill="#EED408"/>
<path d="M34.45 4.94C34.54 4.86 34.63 4.77 34.72 4.69C34.75 4.72 34.7699 4.75 34.7999 4.77C34.7199 4.86 34.6299 4.95 34.5499 5.03C34.5199 5 34.49 4.97 34.45 4.93V4.94Z" fill="#EED408"/>
<path d="M37.3698 7.26001C37.3698 7.50001 37.3098 7.57001 37.0798 7.60001C37.0798 7.39001 37.2298 7.33001 37.3798 7.26001H37.3698Z" fill="#EED408"/>
<path d="M36.1799 8.24999C36.2699 8.15999 36.3599 8.07999 36.4399 7.98999C36.4599 8.00999 36.4799 8.02999 36.4999 8.04999C36.4999 8.21999 36.3899 8.27999 36.2399 8.31999C36.2199 8.29999 36.1999 8.27999 36.1699 8.24999H36.1799Z" fill="#EED408"/>
<path d="M25.4499 20.11C24.7499 20.26 24.5299 20.45 24.5599 20.86C24.5799 21.24 24.9299 21.6 25.2999 21.64C25.6999 21.68 25.8999 21.46 26.0899 20.77C26.2499 20.8 26.4299 20.82 26.5799 20.87C26.6399 20.89 26.7099 21 26.7099 21.08C26.7499 21.68 26.1999 22.32 25.5599 22.42C24.5199 22.58 23.5399 21.48 23.8199 20.47C23.9699 19.94 24.5399 19.48 25.0699 19.46C25.2099 19.46 25.2899 19.49 25.3199 19.63C25.3599 19.79 25.3999 19.95 25.4499 20.12V20.11Z" fill="#EED408"/>
</g>
<defs>
<clipPath id="clip0_301_47">
<rect width="42.08" height="42.08" fill="white"/>
</clipPath>
</defs>
</svg>
