<svg width="25" height="25" viewBox="0 0 34 34" fill="none" xmlns="http://www.w3.org/2000/svg">
<path d="M18.7132 0.335058C19.9295 0.330391 21.1457 0.342615 22.3616 0.371725L22.6849 0.383392C23.0582 0.396725 23.4266 0.413392 23.8716 0.433392C25.6449 0.516725 26.8549 0.796725 27.9166 1.20839C29.0166 1.63173 29.9432 2.20506 30.8699 3.13173C31.7172 3.9644 32.3729 4.97164 32.7916 6.08339C33.2032 7.14506 33.4832 8.35673 33.5666 10.1301C33.5866 10.5734 33.6032 10.9434 33.6166 11.3167L33.6266 11.6401C33.6562 12.8554 33.669 14.0711 33.6649 15.2867L33.6666 16.5301V18.7134C33.6707 19.9296 33.6579 21.1459 33.6282 22.3617L33.6182 22.6851C33.6049 23.0584 33.5882 23.4267 33.5682 23.8717C33.4849 25.6451 33.2016 26.8551 32.7916 27.9167C32.3743 29.0297 31.7184 30.0377 30.8699 30.8701C30.0365 31.7173 29.0288 32.373 27.9166 32.7917C26.8549 33.2034 25.6449 33.4834 23.8716 33.5667C23.4266 33.5867 23.0582 33.6034 22.6849 33.6167L22.3616 33.6267C21.1457 33.6564 19.9295 33.6691 18.7132 33.6651L17.4699 33.6667H15.2882C14.072 33.6708 12.8558 33.6581 11.6399 33.6284L11.3166 33.6184C10.9209 33.6041 10.5254 33.5874 10.1299 33.5684C8.35657 33.4851 7.14657 33.2017 6.08324 32.7917C4.97104 32.374 3.96363 31.7181 3.13157 30.8701C2.28331 30.0372 1.62694 29.0293 1.20824 27.9167C0.79657 26.8551 0.51657 25.6451 0.433237 23.8717C0.414675 23.4763 0.398008 23.0807 0.383237 22.6851L0.374904 22.3617C0.344177 21.1459 0.330286 19.9296 0.333237 18.7134V15.2867C0.328585 14.0711 0.340809 12.8554 0.369904 11.6401L0.38157 11.3167C0.394904 10.9434 0.41157 10.5734 0.43157 10.1301C0.514904 8.35506 0.794904 7.14673 1.20657 6.08339C1.62552 4.97109 2.28318 3.96413 3.13324 3.13339C3.96473 2.28465 4.97151 1.62768 6.08324 1.20839C7.14657 0.796725 8.3549 0.516725 10.1299 0.433392L11.3166 0.383392L11.6399 0.375059C12.8552 0.344347 14.0709 0.330456 15.2866 0.333392L18.7132 0.335058ZM16.9999 8.66839C15.8957 8.65278 14.7995 8.85677 13.7749 9.26851C12.7502 9.68024 11.8176 10.2915 11.0313 11.0668C10.245 11.8421 9.62057 12.766 9.19438 13.7847C8.76819 14.8034 8.54872 15.8966 8.54872 17.0009C8.54872 18.1052 8.76819 19.1984 9.19438 20.2171C9.62057 21.2358 10.245 22.1597 11.0313 22.935C11.8176 23.7103 12.7502 24.3215 13.7749 24.7333C14.7995 25.145 15.8957 25.349 16.9999 25.3334C19.21 25.3334 21.3297 24.4554 22.8925 22.8926C24.4553 21.3298 25.3332 19.2102 25.3332 17.0001C25.3332 14.7899 24.4553 12.6703 22.8925 11.1075C21.3297 9.5447 19.21 8.66839 16.9999 8.66839ZM16.9999 12.0017C17.6641 11.9895 18.324 12.1097 18.9412 12.3554C19.5584 12.6011 20.1205 12.9673 20.5945 13.4326C21.0686 13.898 21.4452 14.4531 21.7023 15.0656C21.9594 15.6781 22.0919 16.3358 22.092 17C22.0921 17.6643 21.9599 18.322 21.703 18.9346C21.446 19.5472 21.0696 20.1025 20.5957 20.568C20.1218 21.0335 19.5599 21.3998 18.9428 21.6457C18.3257 21.8916 17.6658 22.0121 17.0016 22.0001C15.6755 22.0001 14.4037 21.4733 13.466 20.5356C12.5284 19.5979 12.0016 18.3261 12.0016 17.0001C12.0016 15.674 12.5284 14.4022 13.466 13.4645C14.4037 12.5268 15.6755 12.0001 17.0016 12.0001L16.9999 12.0017ZM25.7499 6.16839C25.2122 6.18991 24.7037 6.41864 24.3309 6.80668C23.9581 7.19471 23.7499 7.71195 23.7499 8.25006C23.7499 8.78817 23.9581 9.30541 24.3309 9.69344C24.7037 10.0815 25.2122 10.3102 25.7499 10.3317C26.3024 10.3317 26.8323 10.1122 27.223 9.72153C27.6137 9.33083 27.8332 8.80093 27.8332 8.24839C27.8332 7.69586 27.6137 7.16595 27.223 6.77525C26.8323 6.38455 26.3024 6.16506 25.7499 6.16506V6.16839Z" fill="white"/>
</svg>
