<svg width="20" height="20" viewBox="0 0 20 26" fill="none" xmlns="http://www.w3.org/2000/svg">
<path d="M9.71157 13.0003C10.3792 13.0003 10.951 12.752 11.4269 12.2554C11.9027 11.7589 12.1403 11.1627 12.1395 10.4668C12.1395 9.77012 11.9015 9.1735 11.4257 8.67694C10.9498 8.18038 10.3784 7.93253 9.71157 7.93337C9.0439 7.93337 8.47213 8.18165 7.99627 8.67821C7.5204 9.17476 7.28287 9.77097 7.28368 10.4668C7.28368 11.1635 7.52161 11.7602 7.99748 12.2567C8.47335 12.7533 9.04471 13.0011 9.71157 13.0003ZM9.71157 25.6675C6.45415 22.7752 4.0214 20.0889 2.41333 17.6086C0.805251 15.1284 0.000809298 12.8322 0 10.7202C0 7.55335 0.976418 5.03045 2.92925 3.15148C4.88209 1.2725 7.14286 0.333008 9.71157 0.333008C12.2811 0.333008 14.5423 1.2725 16.4951 3.15148C18.4479 5.03045 19.424 7.55335 19.4231 10.7202C19.4231 12.8314 18.6187 15.1275 17.0098 17.6086C15.4009 20.0897 12.9682 22.776 9.71157 25.6675Z" fill="#121332"/>
</svg>
