<svg width="25" height="25" viewBox="0 0 34 34" fill="none" xmlns="http://www.w3.org/2000/svg">
<path d="M19.4477 16.3751L15.5488 14.5558C15.2085 14.3979 14.9291 14.5749 14.9291 14.9516V18.3784C14.9291 18.7551 15.2085 18.9321 15.5488 18.7742L19.446 16.9549C19.788 16.7952 19.788 16.5348 19.4477 16.3751ZM16.665 0C7.46106 0 0 7.46106 0 16.665C0 25.8689 7.46106 33.33 16.665 33.33C25.8689 33.33 33.33 25.8689 33.33 16.665C33.33 7.46106 25.8689 0 16.665 0ZM16.665 23.4352C8.1346 23.4352 7.98531 22.6661 7.98531 16.665C7.98531 10.6639 8.1346 9.89484 16.665 9.89484C25.1954 9.89484 25.3447 10.6639 25.3447 16.665C25.3447 22.6661 25.1954 23.4352 16.665 23.4352Z" fill="white"/>
</svg>
